<svg id="_001-facebook" data-name="001-facebook" xmlns="http://www.w3.org/2000/svg" width="23.893" height="23.893" viewBox="0 0 23.893 23.893">
  <path id="Path_64" data-name="Path 64" d="M291.155,508.668q-.149.024-.3.045Q291.006,508.692,291.155,508.668Zm0,0" transform="translate(-277.282 -484.93)" fill="#4267b2"/>
  <path id="Path_65" data-name="Path 65" d="M299.482,507.793l-.143.025Zm0,0" transform="translate(-285.37 -484.096)" fill="#4267b2"/>
  <path id="Path_66" data-name="Path 66" d="M277.961,510.34q-.175.02-.351.035Q277.786,510.36,277.961,510.34Zm0,0" transform="translate(-264.654 -486.524)" fill="#4267b2"/>
  <path id="Path_67" data-name="Path 67" d="M286.614,509.738l-.168.021Zm0,0" transform="translate(-273.078 -485.95)" fill="#4267b2"/>
  <path id="Path_68" data-name="Path 68" d="M306.79,506.41l-.126.026Zm0,0" transform="translate(-292.353 -482.777)" fill="#4267b2"/>
  <path id="Path_69" data-name="Path 69" d="M324.586,502.113l-.1.028Zm0,0" transform="translate(-309.342 -478.681)" fill="#4267b2"/>
  <path id="Path_70" data-name="Path 70" d="M319.17,503.543l-.111.029Zm0,0" transform="translate(-304.17 -480.044)" fill="#4267b2"/>
  <path id="Path_71" data-name="Path 71" d="M312.184,505.254l-.118.026Zm0,0" transform="translate(-297.503 -481.675)" fill="#4267b2"/>
  <path id="Path_72" data-name="Path 72" d="M273.669,511.09l-.189.014Zm0,0" transform="translate(-260.718 -487.239)" fill="#4267b2"/>
  <path id="Path_73" data-name="Path 73" d="M23.893,11.947A11.947,11.947,0,1,0,11.947,23.893l.21,0v-9.3H9.59V11.6h2.567V9.4a3.593,3.593,0,0,1,3.836-3.942,21.128,21.128,0,0,1,2.3.118V8.242h-1.57c-1.239,0-1.479.589-1.479,1.453V11.6h2.962l-.386,2.991H15.244v8.841a11.953,11.953,0,0,0,8.649-11.485Zm0,0" fill="#4267b2"/>
  <path id="Path_74" data-name="Path 74" d="M265.265,511.43c-.124.008-.249.014-.374.019C265.016,511.444,265.141,511.438,265.265,511.43Zm0,0" transform="translate(-252.529 -487.563)" fill="#4267b2"/>
  <path id="Path_75" data-name="Path 75" d="M260.7,511.836l-.2,0Zm0,0" transform="translate(-248.347 -487.95)" fill="#4267b2"/>
</svg>
