<svg xmlns="http://www.w3.org/2000/svg" width="80.195" height="83.637" viewBox="0 0 80.195 83.637">
  <g id="Group_1085" data-name="Group 1085" transform="translate(-180 -1281.363)">
    <circle id="Ellipse_133" data-name="Ellipse 133" cx="31" cy="31" r="31" transform="translate(180 1303)" fill="#fff"/>
    <g id="mandarin" transform="translate(194.568 1281.363)">
      <path id="Path_162" data-name="Path 162" d="M43.769,143.278c-2.023.089-3.981.172-5.609.172-9.857,0-17.847-9.478-17.847-21.17s7.991-21.17,17.847-21.17c1.54,0,3.365.1,5.382.209C34.874,102.765,28.2,111.6,28.2,122.279,28.2,133.054,34.99,141.949,43.769,143.278ZM73.542,111.22c-2.848-2.732-4.182-6.454-4.506-15.507a23.906,23.906,0,0,1,3.456.613,27.657,27.657,0,0,0-11.828-4.2c.531,14.843,3.777,15.358,11.962,20.668C72.943,112.277,73.251,111.753,73.542,111.22Z" transform="translate(-17.747 -80.308)" fill="#cee1f2"/>
      <path id="Path_163" data-name="Path 163" d="M45.591,65.708c-1.539,0-3.544-.087-5.666-.179-2.318-.1-4.715-.205-6.7-.206h-.014c-1.96,0-4.25.1-6.465.2-2.187.1-4.253.187-6.016.187A18.975,18.975,0,0,1,6.145,58.595,25.733,25.733,0,0,1,.313,41.971,25.733,25.733,0,0,1,6.145,25.348a18.975,18.975,0,0,1,14.582-7.113c1.641,0,3.586.107,5.645.22,2.508.138,5.352.294,8.262.294a2.566,2.566,0,0,1,0,5.132c-3.051,0-5.969-.16-8.543-.3-2.073-.114-3.864-.212-5.364-.212-8.426,0-15.281,8.346-15.281,18.6s6.855,18.6,15.281,18.6c1.65,0,3.661-.088,5.791-.182,2.27-.1,4.618-.2,6.69-.2h.016c2.1,0,4.552.107,6.924.21,2.065.09,4.016.175,5.444.175,7.633,0,14.183-6.748,15.235-15.7a2.566,2.566,0,0,1,5.1.6,24.464,24.464,0,0,1-6.69,14.346A19.155,19.155,0,0,1,45.591,65.708ZM63.037,37.874a5.005,5.005,0,0,0,2.871-4.288c.536-11.638-5.692-17.668-11.011-20.678A30.531,30.531,0,0,0,43.43,9.262a2.566,2.566,0,0,0-2.764,2.65c.253,7.082,1.108,11.235,2.951,14.337,1.873,3.152,4.578,4.854,8,7.008,1.781,1.12,3.8,2.39,6.129,4.114A5.131,5.131,0,0,0,60.8,38.379,5.194,5.194,0,0,0,63.037,37.874Zm-2.256-4.524h0ZM52.369,17.374c5.884,3.33,8.716,8.666,8.417,15.861-2.479-1.835-4.58-3.156-6.435-4.322C48.7,25.36,46.625,24.051,45.96,14.894a25.014,25.014,0,0,1,6.409,2.479ZM42.959,1.357A2.566,2.566,0,0,0,39.487.3C32.812,3.871,31.206,11,31,12.042a2.98,2.98,0,0,0-.058.541,2.565,2.565,0,0,0,5.09.45h0c.01-.056,1.067-5.637,5.867-8.2a2.566,2.566,0,0,0,1.053-3.473Z" transform="translate(-0.313 0)" fill="#0023c4"/>
      <path id="Path_164" data-name="Path 164" d="M217.361,285.772a3.208,3.208,0,1,1-3.208-3.208A3.208,3.208,0,0,1,217.361,285.772ZM213.9,274.353a3.208,3.208,0,1,1-3.208-3.208A3.208,3.208,0,0,1,213.9,274.353Zm0,0a3.208,3.208,0,1,1-3.208-3.208A3.208,3.208,0,0,1,213.9,274.353Zm8.211-.257a3.208,3.208,0,1,0,3.208,3.208A3.208,3.208,0,0,0,222.108,274.1Zm-16.166,8.725a3.208,3.208,0,1,1-3.208-3.208A3.208,3.208,0,0,1,205.942,282.821Zm-3.464-11.547a3.208,3.208,0,1,1-3.208-3.208A3.208,3.208,0,0,1,202.478,271.274Zm0,0a3.208,3.208,0,1,1-3.208-3.208A3.208,3.208,0,0,1,202.478,271.274Z" transform="translate(-170.948 -233.672)" fill="#ff5cf3"/>
    </g>
  </g>
</svg>
