<svg id="_011-instagram" data-name="011-instagram" xmlns="http://www.w3.org/2000/svg" xmlns:xlink="http://www.w3.org/1999/xlink" width="23.893" height="23.893" viewBox="0 0 23.893 23.893">
  <defs>
    <linearGradient id="linear-gradient" x1="0.5" x2="0.5" y2="1" gradientUnits="objectBoundingBox">
      <stop offset="0" stop-color="#cc2f82"/>
      <stop offset="1" stop-color="#f1782a"/>
    </linearGradient>
  </defs>
  <path id="Path_78" data-name="Path 78" d="M211.573,209.287A2.287,2.287,0,1,1,209.287,207,2.287,2.287,0,0,1,211.573,209.287Zm0,0" transform="translate(-197.34 -197.34)" fill="url(#linear-gradient)"/>
  <path id="Path_79" data-name="Path 79" d="M146.457,137.067a2.272,2.272,0,0,0-1.3-1.3,3.8,3.8,0,0,0-1.274-.236c-.724-.033-.94-.04-2.772-.04s-2.049.007-2.772.04a3.8,3.8,0,0,0-1.274.236,2.273,2.273,0,0,0-1.3,1.3,3.8,3.8,0,0,0-.236,1.274c-.033.723-.04.94-.04,2.772s.007,2.049.04,2.772a3.8,3.8,0,0,0,.236,1.274,2.272,2.272,0,0,0,1.3,1.3,3.791,3.791,0,0,0,1.274.236c.723.033.94.04,2.772.04s2.049-.007,2.772-.04a3.791,3.791,0,0,0,1.274-.236,2.272,2.272,0,0,0,1.3-1.3,3.8,3.8,0,0,0,.236-1.274c.033-.724.04-.94.04-2.772s-.007-2.049-.04-2.772A3.791,3.791,0,0,0,146.457,137.067Zm-5.348,7.568a3.523,3.523,0,1,1,3.523-3.523A3.523,3.523,0,0,1,141.109,144.635Zm3.662-6.361a.823.823,0,1,1,.823-.823A.823.823,0,0,1,144.771,138.274Zm0,0" transform="translate(-129.162 -129.166)" fill="url(#linear-gradient)"/>
  <path id="Path_80" data-name="Path 80" d="M11.947,0A11.947,11.947,0,1,0,23.893,11.947,11.948,11.948,0,0,0,11.947,0Zm6.819,14.775a5.033,5.033,0,0,1-.319,1.665,3.508,3.508,0,0,1-2.006,2.006,5.036,5.036,0,0,1-1.665.319c-.732.033-.965.041-2.828.041s-2.1-.008-2.828-.041a5.036,5.036,0,0,1-1.665-.319A3.508,3.508,0,0,1,5.447,16.44a5.032,5.032,0,0,1-.319-1.665c-.034-.732-.042-.965-.042-2.828s.008-2.1.041-2.828a5.034,5.034,0,0,1,.319-1.665A3.51,3.51,0,0,1,7.453,5.447a5.038,5.038,0,0,1,1.665-.319c.732-.033.965-.041,2.828-.041s2.1.008,2.828.042a5.039,5.039,0,0,1,1.665.318,3.509,3.509,0,0,1,2.006,2.006,5.033,5.033,0,0,1,.319,1.665c.033.732.041.965.041,2.828S18.8,14.043,18.765,14.775Zm0,0" fill="url(#linear-gradient)"/>
</svg>
