<svg xmlns="http://www.w3.org/2000/svg" width="162" height="73" viewBox="0 0 162 73">
  <g id="Group_1081" data-name="Group 1081" transform="translate(-180 -2128.392)">
    <g id="Group_1086" data-name="Group 1086">
      <rect id="Rectangle_1066" data-name="Rectangle 1066" width="162" height="73" transform="translate(180 2128.392)" fill="#1e1e3a"/>
      <path id="Path_165" data-name="Path 165" d="M1.32,0h9.6V-3.3H4.95V-23.1H1.32ZM15.84-17.787c0-1.65.726-2.277,1.881-2.277s1.881.627,1.881,2.277V-5.313c0,1.65-.726,2.277-1.881,2.277S15.84-3.663,15.84-5.313ZM12.21-5.544c0,3.7,1.947,5.808,5.511,5.808s5.511-2.112,5.511-5.808V-17.556c0-3.7-1.947-5.808-5.511-5.808s-5.511,2.112-5.511,5.808ZM31.02-9.57h1.65v4.257c0,1.65-.726,2.244-1.881,2.244s-1.881-.594-1.881-2.244V-17.787c0-1.65.726-2.277,1.881-2.277s1.881.627,1.881,2.277v2.475H36.1v-2.244c0-3.7-1.848-5.808-5.412-5.808s-5.412,2.112-5.412,5.808V-5.544c0,3.7,1.848,5.808,5.412,5.808S36.1-1.848,36.1-5.544V-12.87H31.02Zm10.758-8.217c0-1.65.726-2.277,1.881-2.277s1.881.627,1.881,2.277V-5.313c0,1.65-.726,2.277-1.881,2.277s-1.881-.627-1.881-2.277ZM38.148-5.544c0,3.7,1.947,5.808,5.511,5.808S49.17-1.848,49.17-5.544V-17.556c0-3.7-1.947-5.808-5.511-5.808s-5.511,2.112-5.511,5.808Z" transform="translate(236 2175.392)" fill="#fff"/>
    </g>
  </g>
</svg>
