<svg xmlns="http://www.w3.org/2000/svg" width="197" height="89" viewBox="0 0 197 89">
  <g id="Group_1087" data-name="Group 1087" transform="translate(-180 -62)">
    <rect id="Rectangle_810" data-name="Rectangle 810" width="197" height="89" transform="translate(180 62)" fill="#fff"/>
    <path id="Path_166" data-name="Path 166" d="M1.6,0H13.24V-4H6V-28H1.6ZM19.2-21.56c0-2,.88-2.76,2.28-2.76s2.28.76,2.28,2.76V-6.44c0,2-.88,2.76-2.28,2.76S19.2-4.44,19.2-6.44ZM14.8-6.72c0,4.48,2.36,7.04,6.68,7.04s6.68-2.56,6.68-7.04V-21.28c0-4.48-2.36-7.04-6.68-7.04s-6.68,2.56-6.68,7.04ZM37.6-11.6h2v5.16c0,2-.88,2.72-2.28,2.72s-2.28-.72-2.28-2.72V-21.56c0-2,.88-2.76,2.28-2.76s2.28.76,2.28,2.76v3h4.16v-2.72c0-4.48-2.24-7.04-6.56-7.04s-6.56,2.56-6.56,7.04V-6.72c0,4.48,2.24,7.04,6.56,7.04s6.56-2.56,6.56-7.04V-15.6H37.6Zm13.04-9.96c0-2,.88-2.76,2.28-2.76s2.28.76,2.28,2.76V-6.44c0,2-.88,2.76-2.28,2.76s-2.28-.76-2.28-2.76ZM46.24-6.72c0,4.48,2.36,7.04,6.68,7.04S59.6-2.24,59.6-6.72V-21.28c0-4.48-2.36-7.04-6.68-7.04s-6.68,2.56-6.68,7.04Z" transform="translate(248 119)" fill="#1e1e3a"/>
  </g>
</svg>
