<svg id="_008-youtube" data-name="008-youtube" xmlns="http://www.w3.org/2000/svg" width="23.893" height="23.893" viewBox="0 0 23.893 23.893">
  <path id="Path_76" data-name="Path 76" d="M224.113,212.516,228,210.277l-3.886-2.238Zm0,0" transform="translate(-213.654 -198.331)" fill="#fc0000"/>
  <path id="Path_77" data-name="Path 77" d="M11.947,0A11.947,11.947,0,1,0,23.893,11.947,11.948,11.948,0,0,0,11.947,0Zm7.465,11.959A19.718,19.718,0,0,1,19.1,15.55a1.871,1.871,0,0,1-1.316,1.316,45.407,45.407,0,0,1-5.842.308,43.782,43.782,0,0,1-5.842-.32,1.871,1.871,0,0,1-1.316-1.316,19.631,19.631,0,0,1-.308-3.591,19.7,19.7,0,0,1,.308-3.591A1.909,1.909,0,0,1,6.105,7.028a45.407,45.407,0,0,1,5.842-.308,43.689,43.689,0,0,1,5.842.32A1.871,1.871,0,0,1,19.1,8.356a18.711,18.711,0,0,1,.307,3.6Zm0,0" fill="#fc0000"/>
</svg>
